# xmcd CD database file
#
# Track frame offsets:
#	150
#	16622
#	34795
#	47316
#	62290
#	81037
#	93959
#	109481
#	126247
#	144745
#	157042
#	178763
#	197310
#	210983
#	227304
#	242376
#	261297
#	272918
#
# Disc length: 3885 seconds
#
# Revision: 3
# Processed by: cddbd v1.5.2PL0 Copyright (c) Steve Scherf et al.
# Submitted via: CDex 1.50Beta7
#
DISCID=e10f2b12
DTITLE=Paola - Ihre grossen Erfolge 2
DYEAR=1996
DGENRE=Schlager
TTITLE0=Tränen einer Nacht
TTITLE1=Santa Marguerita
TTITLE2=Was heut' nicht ist
TTITLE3=Wie man sich bettet
TTITLE4=Engel brauchen Liebe
TTITLE5=Weisse Rosen aus Athen
TTITLE6=Nah beim Regenbogen
TTITLE7=Träume mal schön von Hawaii
TTITLE8=Wenn du heimkommst
TTITLE9=Ole o' Cangaceiro
TTITLE10=Wahrheit und Liebe
TTITLE11=Die Nacht der Nächte
TTITLE12=Das Spiel das wir spielen
TTITLE13=Aloha Oe
TTITLE14=Zeig mir den Stern der Liebe
TTITLE15=Ich hab' ins Paradies gesehn
TTITLE16=Morgen bekommst du mehr von mir
TTITLE17=Zwischen dir und mir
EXTD=YEAR: 1996
EXTT0=
EXTT1=
EXTT2=
EXTT3=
EXTT4=
EXTT5=
EXTT6=
EXTT7=
EXTT8=
EXTT9=
EXTT10=
EXTT11=
EXTT12=
EXTT13=
EXTT14=
EXTT15=
EXTT16=
EXTT17=
PLAYORDER=
